<svg xmlns="http://www.w3.org/2000/svg" width="1260" height="700" viewBox="0 0 1260 700">
<rect width="100%" height="100%" fill="white"/>
<style>text{font-family:Arial, Helvetica, sans-serif; fill:#222;} .title{font-size:30px;font-weight:700;} .label{font-size:20px;} .axis{font-size:17px;} .num{font-size:15px;} .legend{font-size:18px;} .small{font-size:16px;}</style>
<text x="630.0" y="42" text-anchor="middle" class="title">SciQ prompt smoke: harder task, still saturated kNN reference</text>
<text x="330.0" y="80" text-anchor="middle" class="label">Weak probe accuracy</text>
<line x1="80" y1="535" x2="580" y2="535" stroke="#D7DCE2" stroke-width="1"/>
<text x="68" y="541" text-anchor="end" class="axis">0</text>
<line x1="80" y1="427.5" x2="580" y2="427.5" stroke="#D7DCE2" stroke-width="1"/>
<text x="68" y="433.5" text-anchor="end" class="axis">0.25</text>
<line x1="80" y1="320.0" x2="580" y2="320.0" stroke="#D7DCE2" stroke-width="1"/>
<text x="68" y="326.0" text-anchor="end" class="axis">0.5</text>
<line x1="80" y1="212.5" x2="580" y2="212.5" stroke="#D7DCE2" stroke-width="1"/>
<text x="68" y="218.5" text-anchor="end" class="axis">0.75</text>
<line x1="80" y1="105.0" x2="580" y2="105.0" stroke="#D7DCE2" stroke-width="1"/>
<text x="68" y="111.0" text-anchor="end" class="axis">1</text>
<line x1="80" y1="105" x2="80" y2="535" stroke="#333333" stroke-width="2"/>
<line x1="80" y1="535" x2="580" y2="535" stroke="#333333" stroke-width="2"/>
<rect x="115.33333333333331" y="110.98909971740011" width="44" height="424.0109002825999" fill="#4E79A7" rx="3"/>
<text x="137.33333333333331" y="102.98909971740011" text-anchor="middle" class="num">0.986</text>
<rect x="167.33333333333331" y="105.0" width="44" height="430.0" fill="#F28E2B" rx="3"/>
<text x="189.33333333333331" y="97.0" text-anchor="middle" class="num">1.000</text>
<text x="163.33333333333331" y="565" text-anchor="middle" class="axis">weak_train</text>
<rect x="282.0" y="166.88736374646749" width="44" height="368.1126362535325" fill="#4E79A7" rx="3"/>
<text x="304.0" y="158.88736374646749" text-anchor="middle" class="num">0.856</text>
<rect x="334.0" y="272.04260651629073" width="44" height="262.95739348370927" fill="#F28E2B" rx="3"/>
<text x="356.0" y="264.04260651629073" text-anchor="middle" class="num">0.612</text>
<text x="330.0" y="565" text-anchor="middle" class="axis">strong_train</text>
<rect x="448.66666666666663" y="160.82150101419876" width="44" height="374.17849898580124" fill="#4E79A7" rx="3"/>
<text x="470.66666666666663" y="152.82150101419876" text-anchor="middle" class="num">0.870</text>
<rect x="500.66666666666663" y="246.87074829931976" width="44" height="288.12925170068024" fill="#F28E2B" rx="3"/>
<text x="522.6666666666666" y="238.87074829931976" text-anchor="middle" class="num">0.670</text>
<text x="496.66666666666663" y="565" text-anchor="middle" class="axis">test</text>
<rect x="175" y="610" width="20" height="20" fill="#4E79A7"/>
<text x="205" y="627" class="legend">support prompt</text>
<rect x="365" y="610" width="20" height="20" fill="#F28E2B"/>
<text x="395" y="627" class="legend">no-support prompt</text>
<text x="960.0" y="80" text-anchor="middle" class="label">kNN correct neighbors out of 20</text>
<line x1="710" y1="535" x2="1210" y2="535" stroke="#D7DCE2" stroke-width="1"/>
<text x="698" y="541" text-anchor="end" class="axis">0</text>
<line x1="710" y1="427.5" x2="1210" y2="427.5" stroke="#D7DCE2" stroke-width="1"/>
<text x="698" y="433.5" text-anchor="end" class="axis">25</text>
<line x1="710" y1="320.0" x2="1210" y2="320.0" stroke="#D7DCE2" stroke-width="1"/>
<text x="698" y="326.0" text-anchor="end" class="axis">50</text>
<line x1="710" y1="212.5" x2="1210" y2="212.5" stroke="#D7DCE2" stroke-width="1"/>
<text x="698" y="218.5" text-anchor="end" class="axis">75</text>
<line x1="710" y1="105.0" x2="1210" y2="105.0" stroke="#D7DCE2" stroke-width="1"/>
<text x="698" y="111.0" text-anchor="end" class="axis">100</text>
<line x1="710" y1="105" x2="710" y2="535" stroke="#333333" stroke-width="2"/>
<line x1="710" y1="535" x2="1210" y2="535" stroke="#333333" stroke-width="2"/>
<rect x="720.6666666666666" y="534.913201453371" width="28" height="0.08679854662898667" fill="#4E79A7" rx="3"/>
<rect x="754.6666666666666" y="535.0" width="28" height="0.0" fill="#F28E2B" rx="3"/>
<text x="751.6666666666666" y="565" text-anchor="middle" class="axis">15</text>
<rect x="804.0" y="534.3924101735971" width="28" height="0.6075898264029067" fill="#4E79A7" rx="3"/>
<rect x="838.0" y="535.0" width="28" height="0.0" fill="#F28E2B" rx="3"/>
<text x="835.0" y="565" text-anchor="middle" class="axis">16</text>
<rect x="887.3333333333333" y="532.0488494146144" width="28" height="2.951150585385547" fill="#4E79A7" rx="3"/>
<rect x="921.3333333333333" y="535.0" width="28" height="0.0" fill="#F28E2B" rx="3"/>
<text x="918.3333333333333" y="565" text-anchor="middle" class="axis">17</text>
<rect x="970.6666666666666" y="523.5425918449738" width="28" height="11.457408155026242" fill="#4E79A7" rx="3"/>
<rect x="1004.6666666666666" y="535.0" width="28" height="0.0" fill="#F28E2B" rx="3"/>
<text x="1001.6666666666666" y="565" text-anchor="middle" class="axis">18</text>
<rect x="1054.0" y="459.0512716996367" width="28" height="75.94872830036334" fill="#4E79A7" rx="3"/>
<text x="1068.0" y="451.0512716996367" text-anchor="middle" class="num">18%</text>
<rect x="1088.0" y="535.0" width="28" height="0.0" fill="#F28E2B" rx="3"/>
<text x="1085.0" y="565" text-anchor="middle" class="axis">19</text>
<rect x="1137.3333333333333" y="196.051675413807" width="28" height="338.948324586193" fill="#4E79A7" rx="3"/>
<text x="1151.3333333333333" y="188.051675413807" text-anchor="middle" class="num">79%</text>
<rect x="1171.3333333333333" y="105.0" width="28" height="430.0" fill="#F28E2B" rx="3"/>
<text x="1185.3333333333333" y="97.0" text-anchor="middle" class="num">100%</text>
<text x="1168.3333333333333" y="565" text-anchor="middle" class="axis">20</text>
<text x="960.0" y="597" text-anchor="middle" class="axis">number of weak-correct neighbors</text>
<text x="655" y="320.0" text-anchor="middle" transform="rotate(-90 655 320.0)" class="axis">percent of strong_train points</text>
<text x="630.0" y="666" text-anchor="middle" class="small">Main point: no-support lowers weak probe accuracy on heldout splits, but kNN remains unusable because weak_train reference correctness is saturated.</text>
</svg>